<svg height="512" viewBox="0 0 512 512" width="512" xmlns="http://www.w3.org/2000/svg"><g id="filled_outline" data-name="filled outline"><circle cx="256" cy="256" fill="#e82f3e" r="232"/><path d="m256 496a240 240 0 0 1 -169.706-409.7 240 240 0 1 1 339.412 339.41 238.433 238.433 0 0 1 -169.706 70.29zm0-464a224 224 0 0 0 -158.392 382.392 224 224 0 0 0 316.784-316.784 222.533 222.533 0 0 0 -158.392-65.608z" fill="#961b20"/><circle cx="256" cy="256" fill="#ea9d2d" r="184"/><path d="m450.428 310.7-109.963-82.636 39.27-131.826a8 8 0 0 0 -12.264-8.831l-112.571 79.046-113.237-78.085a8 8 0 0 0 -12.189 8.932l40.392 131.49-109.256 83.566a8 8 0 0 0 4.731 14.354l137.533 2.217 45.715 129.732a8 8 0 0 0 7.545 5.341h.034a8 8 0 0 0 7.534-5.4l44.609-130.117 137.508-3.387a8 8 0 0 0 4.609-14.394zm-123.675-92.651-58-41.768 89.083-62.553zm-30.053 94.593-82.354.351-25.783-78.215 66.42-48.69 66.832 48.123zm-145.173-198.037 89.613 61.795-57.648 42.261zm23.545 130.347 22.377 67.885-108.838-1.754zm80.959 186.683-36.177-102.665 71.478-.305zm57.569-119.292 21.8-68.073 87.021 65.392z" fill="#961b20"/><path d="m256 16a240 240 0 0 0 -169.706 409.705 240 240 0 1 0 339.412-339.405 238.433 238.433 0 0 0 -169.706-70.3zm158.392 398.392a224 224 0 0 1 -316.784-316.784 224 224 0 0 1 316.784 316.784z"/><path d="m376.61 106.73 3.125-10.492a8 8 0 0 0 -12.264-8.831l-8.981 6.307a191.6 191.6 0 0 0 -207.1 1.364l-9.73-6.71a8 8 0 0 0 -12.186 8.932l3.505 11.408a191.872 191.872 0 0 0 -62.653 196.217l-9.716 7.431a8 8 0 0 0 4.731 14.354l12.234.2c26.941 67.552 91.182 116.326 167.138 120.752l3.876 11a8 8 0 0 0 7.545 5.338h.034a8 8 0 0 0 7.534-5.4l3.752-10.946c76.463-4.522 141.026-53.988 167.578-122.293l10.787-.265a8 8 0 0 0 4.609-14.394l-8.572-6.442a191.922 191.922 0 0 0 -65.246-197.53zm-107.862 69.551 89.083-62.553-31.078 104.321zm53.069 57.93-25.117 78.431-82.354.351-25.783-78.215 66.42-48.69zm-65.817-154.211a174.92 174.92 0 0 1 88.2 23.746l-89.3 62.707-89.167-61.486a174.924 174.924 0 0 1 90.267-24.967zm-14.86 96.4-57.648 42.261-31.965-104.056zm-161.14 79.6a175.593 175.593 0 0 1 58.114-130.571l31.752 103.361-85.655 65.515a175.931 175.931 0 0 1 -4.211-38.305zm8.793 54.944 86.279-65.992 22.377 67.885-108.61-1.75c-.015-.048-.031-.095-.046-.143zm6.264 16.245 107.817 1.738 36.026 102.24c-64.345-6.233-118.656-47.258-143.843-103.978zm160.974 104.446-36.177-102.665 71.478-.305zm17.074-.468 35.206-102.689 109.247-2.691c-24.909 57.443-79.58 99.093-144.453 105.38zm40.495-118.824 21.8-68.073 87.021 65.392zm114.308-18.571-87.441-65.708 31.17-104.633a175.856 175.856 0 0 1 56.271 170.341z"/></g></svg>